<svg xmlns="http://www.w3.org/2000/svg" width="26.793" height="26.843" viewBox="0 0 26.793 26.843">
  <path id="Icon_feather-phone-call" data-name="Icon feather-phone-call" d="M19.111,6.429A6.161,6.161,0,0,1,23.978,11.3M19.111,1.5a11.09,11.09,0,0,1,9.8,9.784m-1.232,9.833v3.7a2.465,2.465,0,0,1-2.686,2.465A24.386,24.386,0,0,1,14.354,23.5,24.029,24.029,0,0,1,6.961,16.1,24.386,24.386,0,0,1,3.178,5.419,2.465,2.465,0,0,1,5.63,2.732h3.7a2.465,2.465,0,0,1,2.465,2.119,15.822,15.822,0,0,0,.863,3.463,2.465,2.465,0,0,1-.555,2.6l-1.565,1.565a19.716,19.716,0,0,0,7.394,7.394l1.565-1.565a2.465,2.465,0,0,1,2.6-.555,15.822,15.822,0,0,0,3.463.863A2.465,2.465,0,0,1,27.675,21.118Z" transform="translate(-2.667 -0.948)" fill="none" stroke="#000" stroke-linecap="round" stroke-linejoin="round" stroke-width="1"/>
</svg>
