<svg xmlns="http://www.w3.org/2000/svg" xmlns:xlink="http://www.w3.org/1999/xlink" width="720" height="232" viewBox="0 0 720 232">
  <defs>
    <filter id="Rectangle_254" x="0" y="0" width="720" height="232" filterUnits="userSpaceOnUse">
      <feOffset dx="4" dy="4" input="SourceAlpha"/>
      <feGaussianBlur stdDeviation="11" result="blur"/>
      <feFlood flood-color="#ccc" flood-opacity="0.22"/>
      <feComposite operator="in" in2="blur"/>
      <feComposite in="SourceGraphic"/>
    </filter>
  </defs>
  <g id="Group_2348" data-name="Group 2348" transform="translate(6 -2130)">
    <text id="Read_less" data-name="Read less" transform="translate(52 2225)" fill="#fe9e2d" font-size="26" font-family="SFProDisplay-Regular, SF Pro Display" letter-spacing="0.004em"><tspan x="0" y="0">Read less</tspan></text>
    <path id="Chevron" d="M9.013.408A1.237,1.237,0,0,1,9.926,0a1.352,1.352,0,0,1,1.31,1.418,1.513,1.513,0,0,1-.4,1.033l-7.7,8.217,7.7,8.193a1.535,1.535,0,0,1,.4,1.033,1.352,1.352,0,0,1-1.31,1.418,1.2,1.2,0,0,1-.9-.408L.462,11.773A1.555,1.555,0,0,1,0,10.656,1.584,1.584,0,0,1,.451,9.551Z" transform="translate(206.226 2212.837) rotate(90)" fill="#fe9e2d"/>
    <g transform="matrix(1, 0, 0, 1, -6, 2130)" filter="url(#Rectangle_254)">
      <g id="Rectangle_254-2" data-name="Rectangle 254" transform="translate(29 29)" fill="#fff" stroke="#adadad" stroke-width="1">
        <rect width="654" height="166" rx="4" stroke="none"/>
        <rect x="0.5" y="0.5" width="653" height="165" rx="3.5" fill="none"/>
      </g>
    </g>
    <g id="Group_1974" data-name="Group 1974" transform="translate(178.968 2186.745)">
      <text id="_100_Secure_Payment" data-name="100%
Secure Payment" transform="translate(0 67.382)" fill="#464646" font-size="25" font-family="Poppins-SemiBold, Poppins" font-weight="600"><tspan x="62.81" y="26">100%</tspan><tspan fill="#888" font-size="20" font-family="Poppins-Medium, Poppins" font-weight="500"><tspan x="11.218" y="48">Secure Payment</tspan></tspan></text>
      <g id="Group_450" data-name="Group 450" transform="translate(72.92)">
        <g id="Thin-L">
          <path id="Path_757" data-name="Path 757" d="M549.041,710.61a4.215,4.215,0,0,1-4.111-4.111v-27.43a3.906,3.906,0,0,1,1.233-2.915,4,4,0,0,1,2.877-1.2h5.232V668.38a11.585,11.585,0,1,1,23.17,0v6.577h5.232a4,4,0,0,1,2.878,1.2,3.907,3.907,0,0,1,1.233,2.915V706.5a4.214,4.214,0,0,1-4.111,4.111Zm0-2.317h33.634a1.787,1.787,0,0,0,1.794-1.794v-27.43a1.788,1.788,0,0,0-1.794-1.794H549.041a1.787,1.787,0,0,0-1.794,1.794V706.5a1.786,1.786,0,0,0,1.794,1.794Zm7.474-33.335H575.2V668.38a8.886,8.886,0,0,0-2.728-6.577,9.476,9.476,0,0,0-13.229,0,8.884,8.884,0,0,0-2.728,6.577Zm-9.268,33.335v0Z" transform="translate(-544.93 -656.795)" fill="#464646"/>
        </g>
        <path id="Path_758" data-name="Path 758" d="M595.144,770.219l11.682-11.682-2.414-2.414-9.268,9.269-3.765-3.765-2.414,2.414Z" transform="translate(-576.555 -728.132)" fill="#464646"/>
      </g>
    </g>
    <line id="Line_8" data-name="Line 8" y1="165.199" transform="translate(368.646 2159.57)" fill="none" stroke="#adadad" stroke-width="1"/>
    <line id="Line_112" data-name="Line 112" y1="165.199" transform="translate(531.518 2159.57)" fill="none" stroke="#adadad" stroke-width="1"/>
    <line id="Line_9" data-name="Line 9" y1="165.199" transform="translate(175.005 2159.57)" fill="none" stroke="#adadad" stroke-width="1"/>
    <g id="Group_1975" data-name="Group 1975" transform="translate(389.851 2191.173)">
      <text id="Assured_Quality" data-name="Assured
Quality" transform="translate(56.149 90.827)" fill="#464646" font-size="25" font-family="Poppins-SemiBold, Poppins" font-weight="600"><tspan x="-52.075" y="0">Assured</tspan><tspan fill="#888" font-size="20" font-family="Poppins-Medium, Poppins" font-weight="500"><tspan x="-35.96" y="23">Quality</tspan></tspan></text>
      <g id="Group_1973" data-name="Group 1973" transform="translate(32.899)">
        <path id="Path_962" data-name="Path 962" d="M244.591,295.424c1.265,0,2.53.013,3.8-.007a.674.674,0,0,1,.772.6,14.547,14.547,0,0,0,28.208.248c.168-.668.411-.872,1.11-.857,2.437.051,4.875.025,7.313,0a.638.638,0,0,1,.738.535c.306,1.032.666,2.049.992,3.075a2.091,2.091,0,0,1-.81,2.54c-1.661,1.222-3.345,2.414-4.994,3.653a2.057,2.057,0,0,0-.68.916c-.646,1.883-1.241,3.784-1.856,5.678a2.22,2.22,0,0,1-2.492,1.8c-1.923,0-3.846-.029-5.768.015a2.6,2.6,0,0,0-1.342.423c-1.6,1.1-3.16,2.269-4.737,3.408a2.2,2.2,0,0,1-3.072.009c-1.593-1.157-3.172-2.335-4.787-3.459a2.324,2.324,0,0,0-1.216-.383c-1.946-.038-3.892-.014-5.839-.014a2.231,2.231,0,0,1-2.522-1.855c-.606-1.872-1.2-3.749-1.839-5.609a2.065,2.065,0,0,0-.676-.92c-1.591-1.2-3.214-2.354-4.822-3.53a2.217,2.217,0,0,1-.934-2.87c.314-.957.647-1.908.925-2.875a.638.638,0,0,1,.74-.535c1.264.019,2.529.007,3.794.007Z" transform="translate(-238.943 -267.058)" fill="none" stroke="#464646" stroke-width="2"/>
        <path id="Path_963" data-name="Path 963" d="M281.96,202.484c-1.2,0-2.393-.034-3.587.014-.6.024-.826-.173-.983-.757a14.144,14.144,0,0,0-8.77-9.94,14.517,14.517,0,0,0-19.4,9.861c-.164.635-.386.854-1.061.841-2.438-.047-4.877-.028-7.316-.006-.448,0-.666-.112-.794-.562-.281-.991-.63-1.962-.945-2.943a2.145,2.145,0,0,1,.864-2.707c1.644-1.207,3.3-2.39,4.932-3.618a2.062,2.062,0,0,0,.669-.925c.645-1.883,1.24-3.783,1.855-5.677a2.2,2.2,0,0,1,2.445-1.769c1.993-.007,3.987.012,5.979-.022a2.059,2.059,0,0,0,1.086-.347c1.632-1.143,3.232-2.33,4.845-3.5a2.209,2.209,0,0,1,3.019,0c1.595,1.154,3.175,2.331,4.794,3.449a2.465,2.465,0,0,0,1.28.4c1.945.043,3.892.018,5.838.023a2.2,2.2,0,0,1,2.451,1.761c.609,1.871,1.191,3.752,1.84,5.609a2.449,2.449,0,0,0,.79,1.08c1.585,1.206,3.214,2.355,4.82,3.534a2.135,2.135,0,0,1,.88,2.7c-.308.958-.651,1.907-.93,2.874a.745.745,0,0,1-.873.647C284.446,202.455,283.2,202.485,281.96,202.484Z" transform="translate(-238.937 -179.828)" fill="none" stroke="#464646" stroke-width="2"/>
        <path id="Path_964" data-name="Path 964" d="M312.576,249.816l2.6,2.54-10.639,10.669-5.537-5.5,2.477-2.478,2.9,3.011Z" transform="translate(-282.632 -230.118)" fill="#464646"/>
      </g>
    </g>
    <g id="Group_2346" data-name="Group 2346" transform="translate(560.175 2191.747)">
      <text id="_100_Authentic" data-name="100%
Authentic" transform="translate(43.825 89.253)" fill="#464646" font-size="26" font-family="Poppins-SemiBold, Poppins" font-weight="600"><tspan x="-32.279" y="0">100%</tspan><tspan fill="#888" font-size="18" font-family="Poppins-Medium, Poppins" font-weight="500"><tspan x="-43.821" y="22">Authentic</tspan></tspan></text>
      <path id="Icon_feather-thumbs-up" data-name="Icon feather-thumbs-up" d="M32.4,20.15v-9.8A7.35,7.35,0,0,0,25.05,3l-9.8,22.05V52H42.886a4.9,4.9,0,0,0,4.9-4.165l3.381-22.05a4.9,4.9,0,0,0-4.9-5.635ZM15.25,52H7.9A4.9,4.9,0,0,1,3,47.1V29.95a4.9,4.9,0,0,1,4.9-4.9h7.35" transform="translate(20.35 -3)" fill="none" stroke="#464646" stroke-linecap="round" stroke-linejoin="round" stroke-width="2"/>
    </g>
    <g id="Group_2347" data-name="Group 2347" transform="translate(49.204 2192.046)">
      <g id="Thin-L-2" data-name="Thin-L" transform="translate(12.442)">
        <path id="Path_754" data-name="Path 754" d="M811.774,1525.81a8.842,8.842,0,0,1-6.5-2.67,8.947,8.947,0,0,1-2.67-6.585h-4.36v-36.041a4.862,4.862,0,0,1,4.895-4.895h47.876v13.171h7.564l12.993,17.353v10.411h-5.339a8.871,8.871,0,0,1-2.714,6.585,8.991,8.991,0,0,1-6.541,2.67,8.842,8.842,0,0,1-6.5-2.67,8.947,8.947,0,0,1-2.67-6.585H821.028a8.87,8.87,0,0,1-2.714,6.585A8.991,8.991,0,0,1,811.774,1525.81Zm.089-2.67a6.513,6.513,0,0,0,4.583-11.124,6.513,6.513,0,0,0-9.211,9.211A6.212,6.212,0,0,0,811.862,1523.14Zm-10.946-9.344h1.958a8.216,8.216,0,0,1,3.249-4.538,9.41,9.41,0,0,1,11.257,0,8.162,8.162,0,0,1,3.292,4.538h27.676v-35.417H803.142a2.189,2.189,0,0,0-1.513.667,1.987,1.987,0,0,0-.712,1.468Zm56.064,9.344a6.211,6.211,0,0,0,4.627-1.913,6.513,6.513,0,0,0-9.21-9.211,6.519,6.519,0,0,0,4.583,11.124Zm-5.962-16.64H868.46l-11.39-14.951h-6.052Zm-26.341-9.967Z" transform="translate(-798.247 -1475.62)" fill="#464646"/>
      </g>
      <text id="Free_Shipping_" data-name="Free
Shipping*" transform="translate(46.796 85.954)" fill="#464646" font-size="25" font-family="Poppins-SemiBold, Poppins" font-weight="600"><tspan x="-27.1" y="0">Free</tspan><tspan fill="#a2a2a2" font-size="20" font-family="Poppins-Medium, Poppins" font-weight="500"><tspan x="-49.68" y="22">Shipping*</tspan></tspan></text>
    </g>
  </g>
</svg>
