<svg xmlns="http://www.w3.org/2000/svg" width="25.398" height="35.398" viewBox="0 0 35.398 35.398">
  <path id="Icon_material-account-circle" data-name="Icon material-account-circle" d="M20.2,3A17.2,17.2,0,1,0,37.4,20.2,17.205,17.205,0,0,0,20.2,3Zm0,5.16a5.16,5.16,0,1,1-5.16,5.16A5.153,5.153,0,0,1,20.2,8.16Zm0,24.423A12.384,12.384,0,0,1,9.88,27.044c.052-3.423,6.88-5.3,10.319-5.3,3.423,0,10.268,1.875,10.319,5.3A12.384,12.384,0,0,1,20.2,32.582Z" transform="translate(-2.5 -2.5)" fill="none" stroke="#464646" stroke-width="1"/>
</svg>
